<svg width="375" height="500" viewBox="0 0 375 500" fill="none" xmlns="http://www.w3.org/2000/svg">
<rect width="375" height="500" rx="8" fill="white"/>
<g clip-path="url(#clip0_15_281)">
<rect x="16" y="16" width="343" height="468" rx="8" fill="url(#paint0_radial_15_281)"/>
<path d="M178.544 243.509L197.228 465.185H159.86L178.544 243.509Z" fill="#E65010"/>
<path d="M178.55 243.515L382.033 420.575L355.61 446.998L178.55 243.515Z" fill="#E65010"/>
<path d="M178.544 243.509L400.22 224.825L400.22 262.193L178.544 243.509Z" fill="#E65010"/>
<path d="M178.561 243.526L349.775 45.8883L376.198 72.3114L178.561 243.526Z" fill="#E65010"/>
<path d="M178.544 243.509L159.86 21.832H197.228L178.544 243.509Z" fill="#E65010"/>
<path d="M178.424 243.389L-14.6324 76.7555L11.7907 50.3324L178.424 243.389Z" fill="#E65010"/>
<path d="M178.544 243.509L-43.1328 262.193L-43.1328 224.825L178.544 243.509Z" fill="#E65010"/>
<path d="M178.563 243.523L3.90172 444.608L-22.5214 418.185L178.563 243.523Z" fill="#E65010"/>
<path d="M178.499 243.645L302.352 495.278L267.801 509.509L178.499 243.645Z" fill="#E65010"/>
<path d="M178.508 243.648L434.089 329.867L419.721 364.363L178.508 243.648Z" fill="#E65010"/>
<path d="M178.499 243.645L376.354 141.943L390.585 176.495L178.499 243.645Z" fill="#E65010"/>
<path d="M178.522 243.654L261.562 -4.29577L296.057 10.0727L178.522 243.654Z" fill="#E65010"/>
<path d="M178.499 243.645L58.8384 2.18963L93.3901 -12.042L178.499 243.645Z" fill="#E65010"/>
<path d="M178.344 243.58L-63.6266 163.031L-49.2582 128.536L178.344 243.58Z" fill="#E65010"/>
<path d="M178.499 243.645L-19.3549 345.347L-33.5865 310.795L178.499 243.645Z" fill="#E65010"/>
<path d="M178.523 243.651L93.6082 496.101L59.1131 481.733L178.523 243.651Z" fill="#E65010"/>
</g>
<rect x="17" y="17" width="341" height="466" rx="7" stroke="#EBEBEB" stroke-width="2"/>
<path d="M93.4211 248.01C95.2745 247.147 96.9264 247.113 98.3767 247.908C99.827 248.703 100.676 250.041 100.923 251.922C101.17 253.803 100.72 255.718 99.5721 257.669C98.42 259.553 96.9172 260.926 95.0638 261.79C93.4586 262.556 92.0345 262.671 90.7916 262.135C90.7296 262.16 90.6675 262.184 90.6054 262.208C90.6012 262.142 90.568 262.121 90.506 262.145C89.6567 261.796 88.9519 261.22 88.3917 260.417C87.8315 259.614 87.3581 258.674 86.9713 257.598C86.6466 256.498 86.3819 255.34 86.1771 254.125C85.9681 252.843 85.7943 251.615 85.6558 250.442C85.4537 248.271 85.2013 245.812 84.8989 243.067C84.6585 240.297 84.416 237.494 84.1714 234.657C83.9888 231.796 83.7774 228.981 83.537 226.211C83.3587 223.416 83.2305 220.909 83.1525 218.69C83.1015 217.891 83.4378 217.18 84.1614 216.555C84.8807 215.864 85.6769 215.381 86.55 215.107C87.4189 214.766 88.2096 214.694 88.922 214.892C89.6923 215 90.1029 215.452 90.1538 216.251C90.2302 217.448 90.3173 218.812 90.4149 220.342C90.5126 221.873 90.6145 223.469 90.7206 225.133C90.8225 226.729 90.9286 228.393 91.039 230.122C91.2072 231.761 91.3423 233.379 91.4442 234.976C91.7042 237.056 91.9106 239.294 92.0634 241.689C92.2163 244.084 92.4227 246.322 92.6827 248.402C92.993 248.281 93.2391 248.15 93.4211 248.01ZM93.9933 252.492C93.3106 252.759 92.769 253.244 92.3685 253.947C91.9638 254.583 91.8158 255.255 91.9246 255.963C92.0333 256.67 92.3198 257.171 92.784 257.467C93.3059 257.671 93.9083 257.64 94.591 257.372C95.2695 257.038 95.78 256.565 96.1227 255.953C96.5232 255.25 96.7001 254.533 96.6534 253.801C96.5446 253.094 96.2292 252.638 95.7072 252.433C95.2431 252.138 94.6718 252.157 93.9933 252.492ZM111.943 242.179C113.752 241.606 115.321 241.775 116.652 242.685C118.044 243.571 118.74 245.003 118.739 246.981C118.8 248.935 118.19 250.845 116.91 252.711C115.691 254.553 114.149 255.805 112.283 256.469C110.727 257.011 109.325 256.981 108.078 256.379L107.879 256.252C107.088 255.813 106.441 255.146 105.938 254.251C105.498 253.333 105.147 252.312 104.884 251.187C104.621 250.062 104.45 248.868 104.369 247.604C104.284 246.273 104.235 244.997 104.22 243.775C104.204 241.531 104.169 238.987 104.115 236.144C104.123 233.277 104.129 230.376 104.132 227.443C104.136 224.509 104.144 221.641 104.156 218.841C104.226 215.949 104.315 213.357 104.423 211.064C104.496 210.217 104.897 209.514 105.625 208.956C106.348 208.331 107.149 207.915 108.026 207.707C108.961 207.409 109.787 207.392 110.504 207.656C111.22 207.921 111.542 208.476 111.469 209.323C111.421 210.57 111.353 211.994 111.265 213.598C111.238 215.177 111.216 216.822 111.198 218.534C111.176 220.179 111.158 221.891 111.144 223.67C111.188 225.357 111.199 227.024 111.177 228.669C111.188 230.847 111.147 233.182 111.051 235.675C111.014 238.076 111.034 240.387 111.112 242.607C111.294 242.467 111.571 242.325 111.943 242.179ZM114.45 248.561C114.465 247.805 114.241 247.279 113.777 246.983C113.308 246.622 112.733 246.574 112.05 246.842C111.363 247.043 110.786 247.474 110.319 248.135C109.915 248.771 109.705 249.467 109.689 250.223C109.732 250.888 109.987 251.402 110.456 251.764C110.92 252.059 111.495 252.106 112.182 251.905C112.865 251.637 113.409 251.185 113.814 250.549C114.28 249.889 114.492 249.226 114.45 248.561Z" fill="white"/>
<path d="M141.338 188.906C141.438 188.045 141.901 187.382 142.728 186.918C143.628 186.376 144.535 186.06 145.447 185.971C146.426 185.87 147.282 185.985 148.018 186.315C148.753 186.645 149.071 187.241 148.972 188.102C148.888 188.83 148.789 189.691 148.674 190.685C148.625 191.667 148.511 192.66 148.33 193.665C148.158 194.603 147.89 195.525 147.528 196.431C147.166 197.336 146.626 198.109 145.907 198.75C145.115 199.469 144.285 199.966 143.415 200.243C142.545 200.52 141.687 200.698 140.84 200.776C140 200.788 139.173 200.701 138.356 200.515C137.606 200.317 136.851 200.152 136.093 200.021C135.59 199.911 135.087 199.801 134.584 199.692C134.081 199.582 133.571 199.538 133.052 199.561C132.534 199.584 132.005 199.706 131.463 199.927C130.996 200.071 130.505 200.414 129.991 200.956C129.192 201.74 128.538 202.663 128.029 203.723C127.586 204.772 127.245 205.771 127.006 206.72C126.656 208.078 126.641 209.055 126.959 209.651C127.277 210.246 127.786 210.582 128.486 210.658C129.252 210.724 130.095 210.679 131.015 210.523C132.009 210.29 133.002 210.057 133.996 209.824C135.523 209.436 137.012 209.378 138.463 209.653C139.913 209.927 140.913 210.764 141.46 212.165C141.856 213.202 141.999 214.476 141.889 215.989C141.853 217.423 141.685 218.88 141.385 220.36C141.316 220.956 141.188 221.789 141 222.86C140.886 223.853 140.731 224.918 140.535 226.055C140.347 227.126 140.126 228.203 139.873 229.284C139.692 230.289 139.506 231.067 139.313 231.619C138.743 233.209 137.773 234.64 136.402 235.911C135.038 237.115 133.502 237.862 131.793 238.151C129.821 238.485 128.221 238.106 126.993 237.015C125.773 235.858 125.274 234.319 125.496 232.398C125.717 230.478 126.598 228.705 128.139 227.081C129.68 225.457 131.436 224.478 133.408 224.144L134 224.044C134.18 223.04 134.368 221.969 134.563 220.832C134.759 219.695 134.877 218.668 134.918 217.752C134.967 216.77 134.895 216.003 134.7 215.451C134.572 214.889 134.274 214.679 133.806 214.823C132.673 215.145 131.351 215.434 129.839 215.689C128.335 215.879 126.879 215.93 125.471 215.844C124.063 215.757 122.773 215.489 121.6 215.038C120.501 214.509 119.761 213.66 119.38 212.491C119.05 211.443 118.961 210.257 119.114 208.932C119.332 207.596 119.744 206.261 120.35 204.924C120.962 203.522 121.695 202.197 122.548 200.949C123.467 199.689 124.424 198.651 125.421 197.833C126.777 196.694 128.156 195.909 129.56 195.477C130.971 194.978 132.392 194.673 133.822 194.561C135.327 194.371 136.895 194.463 138.528 194.836C138.775 194.924 139.052 195.04 139.358 195.183C139.737 195.249 140.145 195.342 140.582 195.463C140.836 194.381 140.974 193.189 140.995 191.886C141.089 190.507 141.204 189.513 141.338 188.906ZM132.881 228.714C132.158 228.836 131.54 229.168 131.026 229.71C130.512 230.251 130.218 230.853 130.141 231.515C130.057 232.244 130.218 232.801 130.625 233.186C131.032 233.572 131.597 233.704 132.32 233.582C133.043 233.459 133.661 233.127 134.175 232.586C134.688 232.045 134.987 231.41 135.071 230.681C135.147 230.019 134.982 229.495 134.576 229.109C134.169 228.723 133.604 228.592 132.881 228.714Z" fill="white"/>
<path d="M171.182 192.944C176.216 191.768 180.348 191.426 183.579 191.919C186.816 192.345 189.328 193.479 191.114 195.319C192.965 197.149 194.16 199.642 194.699 202.798C195.303 205.942 195.455 209.65 195.156 213.922C194.898 217.277 194.602 220.964 194.267 224.981C193.933 228.999 193.637 232.685 193.379 236.041C193.287 236.835 192.824 237.498 191.989 238.029C191.228 238.482 190.358 238.759 189.38 238.86C188.46 239.016 187.599 238.934 186.798 238.615C186.063 238.285 185.712 237.695 185.745 236.845C185.935 234.086 186.129 231.001 186.329 227.59C186.595 224.169 186.822 221.078 187.012 218.319C187.262 215.03 187.427 211.917 187.508 208.981C187.589 206.046 187.16 203.618 186.221 201.699C185.356 199.703 183.739 198.353 181.371 197.649C179.076 196.869 175.646 196.995 171.08 198.027C170.086 198.26 169.023 198.537 167.89 198.858C166.758 199.18 165.613 199.601 164.458 200.121C163.375 200.564 162.307 201.167 161.252 201.929C160.271 202.615 159.402 203.444 158.645 204.416C157.954 205.377 157.449 206.404 157.13 207.497C156.876 208.579 156.889 209.583 157.169 210.51C157.457 211.37 157.947 211.872 158.639 212.014C159.332 212.157 160.046 212.393 160.781 212.724C161.698 213.153 162.304 213.765 162.599 214.559C162.96 215.342 163.116 216.225 163.068 217.207C163.092 218.112 162.978 219.105 162.724 220.187C162.536 221.258 162.352 222.296 162.172 223.3C161.719 226.104 161.296 228.935 160.902 231.794C160.581 234.576 160.129 237.38 159.545 240.206C159.38 241.078 158.807 241.857 157.826 242.542C156.918 243.15 155.938 243.543 154.886 243.721C153.9 243.888 153.003 243.845 152.194 243.592C151.393 243.273 151.046 242.65 151.153 241.723C151.5 238.158 152.011 234.565 152.686 230.944C153.361 227.323 153.971 223.713 154.515 220.115C154.599 219.386 154.627 218.862 154.599 218.542C154.572 218.222 154.285 217.913 153.739 217.616C153.252 217.374 152.756 217.198 152.254 217.088C151.751 216.979 151.292 216.764 150.878 216.444C149.46 215.32 148.71 213.727 148.625 211.663C148.552 208.948 149.283 206.519 150.819 204.376C152.355 202.233 154.273 200.415 156.572 198.922C158.944 197.352 161.443 196.085 164.067 195.122C166.765 194.081 169.137 193.355 171.182 192.944Z" fill="white"/>
<path d="M233.364 206.803C233.713 203.514 233.995 200.273 234.21 197.08C234.494 193.806 234.874 190.543 235.349 187.292C235.472 186.412 235.935 185.718 236.737 185.208C237.545 184.632 238.401 184.275 239.307 184.135C240.278 183.98 241.105 184.055 241.789 184.358C242.538 184.647 242.883 185.224 242.825 186.089C242.592 189.548 242.294 193.021 241.932 196.509C241.574 199.931 241.213 203.386 240.85 206.875C240.797 207.673 240.642 209.018 240.387 210.91C240.197 212.787 239.969 214.738 239.705 216.763C239.441 218.788 239.153 220.687 238.842 222.461C238.6 224.153 238.331 225.295 238.035 225.886C237.369 227.216 236.633 228.169 235.826 228.745C235.084 229.306 234.292 229.649 233.452 229.774C232.615 229.833 231.792 229.692 230.983 229.351C230.239 228.996 229.598 228.518 229.062 227.919C228.648 227.424 228.205 226.869 227.734 226.255C227.267 225.575 226.833 224.887 226.432 224.192C226.03 223.497 225.662 222.795 225.325 222.085C225.054 221.36 224.808 220.728 224.588 220.189C224.265 219.279 223.931 218.536 223.586 217.959C223.31 217.301 222.979 216.983 222.594 217.005C222.208 217.027 221.73 217.463 221.161 218.312C220.596 219.095 219.863 220.473 218.962 222.446C218.222 223.924 217.511 225.46 216.827 227.056C216.144 228.652 215.339 230.145 214.413 231.534C213.77 232.531 212.975 233.399 212.029 234.137C211.153 234.794 210.257 235.259 209.342 235.532C208.492 235.79 207.693 235.775 206.944 235.486C206.2 235.131 205.671 234.432 205.357 233.389C204.926 232.177 204.706 230.687 204.697 228.921C204.757 227.073 204.804 225.425 204.837 223.976C204.902 222.062 204.962 220.215 205.018 218.433C205.143 216.571 205.236 214.716 205.296 212.868C205.337 212.269 205.353 211.545 205.346 210.695C205.409 209.764 205.444 208.773 205.45 207.724C205.526 206.593 205.57 205.47 205.581 204.354C205.657 203.223 205.698 202.133 205.705 201.083C203.828 201.377 202.282 201.04 201.067 200.071C199.921 199.021 199.413 197.531 199.543 195.602C199.673 193.673 200.465 191.889 201.92 190.249C203.379 188.543 205.084 187.468 207.035 187.026C208.465 186.702 209.706 186.814 210.758 187.362C211.879 187.828 212.657 188.635 213.092 189.78C213.48 190.675 213.636 191.688 213.56 192.819C213.484 193.949 213.41 195.047 213.338 196.111C213.323 197.294 213.283 198.842 213.218 200.756C213.158 202.604 213.091 204.552 213.017 206.599C212.943 208.646 212.874 210.627 212.81 212.541C212.749 214.389 212.711 215.904 212.696 217.086C212.698 218.003 212.67 218.894 212.612 219.758C212.558 220.557 212.533 221.414 212.535 222.33C213.127 221.148 213.825 219.811 214.63 218.319C215.435 216.826 216.265 215.426 217.121 214.119C218.047 212.73 218.99 211.566 219.949 210.628C220.978 209.609 221.943 209.063 222.845 208.99C223.699 208.665 224.437 208.629 225.061 208.881C225.754 209.051 226.37 209.403 226.911 209.935C227.456 210.401 227.959 211.008 228.421 211.755C228.883 212.501 229.28 213.263 229.612 214.039C229.944 214.816 230.36 215.769 230.86 216.901C231.365 217.965 231.815 218.878 232.212 219.64C232.273 217.792 232.416 215.664 232.642 213.254C232.868 210.845 233.109 208.694 233.364 206.803ZM206.733 191.516C206.017 191.678 205.384 192.051 204.833 192.635C204.346 193.203 204.078 193.854 204.029 194.585C203.98 195.317 204.167 195.864 204.591 196.226C205.08 196.574 205.682 196.667 206.397 196.505C207.112 196.343 207.713 195.978 208.199 195.409C208.686 194.84 208.954 194.19 209.003 193.458C209.052 192.726 208.865 192.179 208.441 191.817C208.017 191.454 207.448 191.354 206.733 191.516Z" fill="white"/>
<path d="M275.598 210.971C276.642 208.354 277.575 205.758 278.397 203.182C279.285 200.613 280.152 198.009 280.997 195.371C281.21 194.614 281.784 194.092 282.718 193.807C283.653 193.521 284.606 193.465 285.576 193.64C286.57 193.751 287.383 194.07 288.015 194.597C288.713 195.131 288.944 195.808 288.708 196.627C287.204 201.405 285.567 206.168 283.798 210.915C282.052 215.601 280.129 220.299 278.029 225.009C277.291 226.619 276.477 228.154 275.587 229.616C274.697 231.078 273.326 232.259 271.473 233.157C269.487 234.04 267.477 234.433 265.443 234.334C263.409 234.236 261.455 234.017 259.58 233.676C257.705 233.335 255.731 232.983 253.658 232.62C251.674 232.202 250.007 231.396 248.657 230.203C247.459 229.158 246.818 227.914 246.734 226.473C246.739 224.976 246.978 223.409 247.451 221.77C247.734 220.825 248.135 219.471 248.654 217.707C249.24 215.95 249.883 214.037 250.585 211.968C251.287 209.899 251.989 207.83 252.691 205.761C253.416 203.63 254.06 201.717 254.622 200.023C252.747 199.682 251.369 198.844 250.486 197.508C249.693 196.117 249.634 194.516 250.309 192.704C250.984 190.893 252.25 189.44 254.106 188.347C255.986 187.192 257.92 186.725 259.908 186.949C261.829 187.165 263.253 187.975 264.178 189.381C265.104 190.787 265.229 192.395 264.554 194.207C264.105 195.784 263.401 197.95 262.443 200.706C261.575 203.407 260.718 206.077 259.873 208.716C259.524 209.653 259 211.059 258.301 212.933C257.603 214.807 256.915 216.747 256.236 218.754C255.647 220.705 255.182 222.508 254.842 224.162C254.591 225.761 254.749 226.82 255.315 227.339C255.576 227.564 256.202 227.829 257.192 228.136C258.272 228.387 259.418 228.646 260.63 228.912C261.932 229.124 263.146 229.293 264.272 229.419C265.398 229.546 266.162 229.534 266.563 229.384C267.322 229.013 267.987 228.34 268.559 227.362C269.219 226.33 269.792 225.255 270.277 224.138C271.225 221.967 272.139 219.792 273.02 217.612C273.924 215.371 274.783 213.157 275.598 210.971ZM258.337 191.165C257.608 191.084 256.897 191.232 256.204 191.609C255.577 191.995 255.136 192.531 254.88 193.218C254.624 193.905 254.646 194.493 254.947 194.983C255.314 195.48 255.862 195.769 256.591 195.851C257.319 195.933 257.997 195.781 258.624 195.396C259.251 195.011 259.692 194.474 259.948 193.787C260.204 193.1 260.182 192.512 259.881 192.022C259.58 191.533 259.065 191.247 258.337 191.165Z" fill="white"/>
<path d="M80.2865 288.624C81.2431 288.333 82.167 288.251 83.0582 288.379C84.0134 288.421 84.8724 288.626 85.6351 288.993C87.0969 289.746 88.2699 290.987 89.1543 292.715C90.1027 294.357 90.8585 296.357 91.4218 298.715C91.9853 301.007 92.3885 303.548 92.6315 306.337C92.8744 309.126 93.0852 311.991 93.2638 314.933C94.6008 315.058 96.1282 315.359 97.8458 315.834C99.5638 316.243 100.995 316.773 102.138 317.423C102.148 315.156 102.19 312.68 102.265 309.994C102.405 307.222 102.576 304.407 102.779 301.548C102.982 298.69 103.185 295.899 103.388 293.174C103.591 290.382 103.792 287.824 103.993 285.499C104.061 284.613 104.51 283.844 105.341 283.191C106.171 282.539 107.065 282.1 108.021 281.875C108.978 281.584 109.806 281.565 110.506 281.818C111.269 282.052 111.617 282.611 111.549 283.498C111.281 286.642 111.012 290.02 110.742 293.631C110.536 297.155 110.33 300.747 110.123 304.405C109.98 308.044 109.838 311.649 109.695 315.222C109.617 318.708 109.571 322.017 109.558 325.151C109.554 326.017 109.232 326.748 108.593 327.342C107.954 327.87 107.188 328.236 106.295 328.441C105.467 328.627 104.638 328.646 103.811 328.499C103.047 328.332 102.507 328.03 102.191 327.594C101.304 326.333 100.004 325.164 98.2885 324.088C96.6372 322.993 95.0805 322.103 93.6185 321.416C93.5476 323.102 93.3176 324.77 92.9285 326.42C92.5393 328.07 91.8322 329.617 90.807 331.061C89.269 333.26 87.3196 334.853 84.9588 335.838C82.6618 336.804 80.5587 337.111 78.6494 336.761C76.6763 336.429 75.1838 335.419 74.1719 333.73C73.2237 332.021 73.0094 329.989 73.529 327.634C74.1128 325.126 75.3323 322.923 77.1874 321.027C79.0429 319.064 81.0554 317.585 83.2252 316.592C83.6081 316.408 84.0228 316.249 84.4692 316.113C84.9794 315.957 85.4259 315.821 85.8085 315.705C85.8743 315.219 85.8776 314.419 85.8187 313.305C85.8238 312.105 85.7658 310.758 85.6447 309.263C85.5237 307.769 85.3393 306.194 85.0915 304.538C84.9076 302.863 84.6592 301.341 84.3466 299.971C83.1309 301.274 81.7578 302.158 80.2272 302.624C78.3139 303.207 76.6905 303.035 75.3569 302.11C74.0235 301.118 73.361 299.655 73.3692 297.722C73.3774 295.788 74.0539 293.951 75.3988 292.21C76.744 290.402 78.3733 289.207 80.2865 288.624ZM82.9707 331.55C83.736 331.317 84.3112 330.842 84.6964 330.125C85.1454 329.389 85.4675 328.526 85.6628 327.534C85.9222 326.456 86.0544 325.317 86.0595 324.117C86.1283 322.898 86.1333 321.731 86.0743 320.617C84.161 321.2 82.6587 322.523 81.5671 324.587C81.3741 325.045 81.1803 325.703 80.9855 326.561C80.8546 327.4 80.7874 328.22 80.784 329.02C80.8444 329.8 81.0326 330.475 81.3487 331.045C81.665 331.548 82.2057 331.716 82.9707 331.55ZM82.6484 294.896C82.6515 294.162 82.4308 293.63 81.9864 293.3C81.542 292.969 80.969 292.91 80.2674 293.124C79.5659 293.338 78.9591 293.755 78.4469 294.378C77.9985 294.98 77.7727 295.648 77.7696 296.381C77.7665 297.115 77.9872 297.647 78.4316 297.977C78.9399 298.289 79.5447 298.338 80.2462 298.124C80.9478 297.91 81.5227 297.502 81.9711 296.9C82.4195 296.297 82.6453 295.629 82.6484 294.896Z" fill="white"/>
<path d="M130.877 271.995C133.146 271.096 135.644 270.482 138.372 270.151C141.1 269.82 143.709 269.846 146.199 270.23C148.771 270.547 151.05 271.259 153.035 272.365C155.087 273.469 156.579 274.974 157.51 276.881C157.994 277.898 158.276 279.34 158.357 281.205C158.52 283.004 158.521 285.065 158.36 287.387C158.214 289.645 157.97 292.034 157.628 294.555C157.287 297.076 156.894 299.533 156.45 301.928C156.022 304.258 155.566 306.427 155.083 308.437C154.6 310.446 154.176 312.067 153.813 313.301C153.544 314.145 152.922 314.806 151.946 315.283C151.053 315.693 150.106 315.912 149.107 315.939C148.123 315.901 147.252 315.667 146.495 315.236C145.804 314.804 145.56 314.167 145.763 313.324C146.008 312.03 146.285 310.605 146.592 309.052C146.967 307.496 147.315 305.909 147.639 304.29C147.962 302.671 148.277 301.085 148.585 299.531C148.908 297.913 149.159 296.457 149.338 295.164C149.648 292.773 149.949 290.286 150.239 287.702C150.596 285.117 150.581 282.702 150.194 280.459C149.827 278.408 148.753 276.955 146.972 276.102C145.206 275.183 143.15 274.788 140.801 274.915C138.52 275.041 136.171 275.587 133.753 276.554C131.418 277.454 129.471 278.665 127.913 280.188C126.257 281.843 124.922 283.811 123.91 286.092C122.913 288.308 122.16 290.615 121.65 293.011C121.222 295.341 120.96 297.666 120.865 299.987C120.837 302.306 120.938 304.364 121.167 306.161C121.377 307.765 121.753 308.818 122.295 309.319C122.906 308.98 123.654 308.348 124.539 307.423C125.49 306.496 126.473 305.439 127.486 304.252C128.516 303.001 129.527 301.686 130.521 300.307C131.582 298.926 132.509 297.549 133.303 296.175C131.633 295.962 130.346 295.256 129.443 294.057C128.555 292.793 128.322 291.286 128.743 289.536C129.195 287.656 130.277 286.049 131.988 284.715C133.715 283.317 135.578 282.59 137.577 282.537C139.51 282.485 141.012 283.12 142.084 284.444C143.239 285.701 143.59 287.269 143.137 289.149C143.106 289.279 143.042 289.409 142.944 289.54C142.913 289.67 142.882 289.8 142.85 289.929C142.347 291.746 141.513 293.7 140.347 295.792C139.264 297.818 138.022 299.815 136.621 301.785C135.303 303.688 133.941 305.496 132.536 307.208C131.146 308.855 129.919 310.24 128.854 311.364C128.021 312.352 127.018 313.216 125.847 313.956C124.742 314.694 123.585 315.241 122.374 315.595C121.245 315.883 120.13 315.978 119.028 315.878C117.926 315.779 116.928 315.387 116.033 314.703C115.205 314.017 114.665 313.098 114.413 311.945C114.227 310.791 114.067 309.669 113.932 308.577C113.611 306.332 113.445 303.857 113.434 301.153C113.422 298.448 113.685 295.705 114.223 292.921C114.826 290.136 115.707 287.439 116.864 284.832C118.103 282.159 119.764 279.796 121.847 277.743C123.06 276.552 124.41 275.485 125.894 274.543C127.394 273.537 129.055 272.688 130.877 271.995ZM136.525 286.912C135.792 286.932 135.104 287.175 134.462 287.643C133.886 288.11 133.513 288.699 133.341 289.412C133.169 290.125 133.262 290.702 133.62 291.144C134.044 291.583 134.622 291.793 135.355 291.773C136.088 291.753 136.743 291.51 137.318 291.044C137.894 290.578 138.268 289.988 138.439 289.275C138.611 288.562 138.518 287.985 138.16 287.544C137.803 287.103 137.258 286.892 136.525 286.912Z" fill="white"/>
<path d="M174.61 269.224C176.543 269.172 177.971 269.842 178.894 271.234C179.817 272.626 180.119 274.26 179.8 276.136C179.524 277.56 179.081 279.537 178.473 282.064C177.947 284.526 177.365 287.085 176.725 289.743C176.086 292.4 175.437 294.961 174.777 297.426C174.185 299.889 173.709 301.866 173.351 303.357C173.844 302.957 174.569 302.422 175.524 301.753C176.48 301.083 177.535 300.411 178.691 299.736C179.862 298.996 181.043 298.352 182.234 297.805C183.508 297.191 184.667 296.774 185.714 296.552C185.928 295.387 186.253 293.898 186.69 292.083C187.193 290.266 187.712 288.385 188.247 286.438C188.781 284.492 189.333 282.61 189.903 280.791C190.473 278.973 190.998 277.477 191.479 276.305C191.831 275.394 192.453 274.733 193.346 274.323C194.306 273.911 195.245 273.725 196.162 273.764C197.095 273.739 197.874 273.944 198.498 274.378C199.122 274.812 199.266 275.452 198.929 276.298C198.449 277.47 197.924 278.965 197.354 280.784C196.799 282.538 196.255 284.388 195.72 286.334C195.186 288.28 194.7 290.161 194.264 291.976C193.827 293.79 193.502 295.28 193.288 296.445C196.064 297.015 198.218 298.245 199.749 300.135C201.363 301.96 201.747 304.493 200.9 307.736C200.304 309.941 199.232 311.644 197.685 312.845C196.205 314.044 194.608 314.763 192.895 315.002C191.249 315.24 189.645 315.025 188.084 314.359C186.539 313.628 185.453 312.498 184.828 310.969C184.34 309.694 184.15 308.283 184.257 306.734C184.365 305.186 184.547 303.603 184.804 301.986C182.171 303.023 179.713 304.57 177.43 306.628C175.163 308.621 173.055 310.642 171.105 312.69C170.58 313.22 169.846 313.658 168.902 314.005C168.04 314.286 167.175 314.438 166.309 314.462C165.458 314.42 164.746 314.214 164.174 313.843C163.616 313.407 163.439 312.768 163.642 311.925C163.969 310.564 164.375 308.879 164.858 306.869C165.357 304.795 165.846 302.625 166.325 300.358C166.871 298.089 167.409 295.853 167.939 293.649C168.485 291.381 168.969 289.372 169.39 287.621C169.468 287.297 169.608 286.714 169.811 285.871C170.096 284.962 170.371 283.957 170.636 282.855C168.801 282.775 167.406 282.104 166.452 280.842C165.564 279.578 165.339 278.039 165.775 276.224C166.228 274.344 167.31 272.737 169.021 271.403C170.748 270.004 172.611 269.278 174.61 269.224ZM193.459 309.771C193.803 309.44 194.153 308.947 194.509 308.294C194.865 307.64 195.049 307.152 195.06 306.83C195.176 305.797 195.095 304.897 194.815 304.132C194.551 303.302 193.7 302.713 192.261 302.365C192.132 302.626 191.984 303.242 191.816 304.213C191.665 305.118 191.572 306.055 191.538 307.021C191.586 307.922 191.732 308.691 191.976 309.328C192.236 309.901 192.73 310.048 193.459 309.771ZM175.472 275.963C175.628 275.315 175.527 274.77 175.17 274.329C174.828 273.823 174.291 273.58 173.558 273.599C172.825 273.619 172.129 273.895 171.471 274.428C170.896 274.895 170.53 275.452 170.374 276.1C170.202 276.813 170.295 277.39 170.653 277.831C171.077 278.271 171.655 278.48 172.388 278.461C173.121 278.441 173.776 278.198 174.351 277.732C174.927 277.266 175.3 276.676 175.472 275.963Z" fill="white"/>
<path d="M206.065 284.676C207.076 281.971 208.322 279.431 209.8 277.058C211.279 274.684 213.07 272.596 215.173 270.794C217.286 268.926 219.801 267.398 222.716 266.209C225.642 264.954 229.057 264.094 232.963 263.626C238.976 262.972 243.597 263.937 246.826 266.523C250.065 269.042 251.864 272.865 252.224 277.991C252.414 280.488 252.33 283.082 251.969 285.774C251.62 288.4 251.171 291.038 250.623 293.688C250.126 296.009 249.398 298.357 248.439 300.733C247.489 303.043 245.935 305.07 243.777 306.815C242.582 307.797 241.282 308.631 239.875 309.317C238.478 309.936 237.031 310.464 235.533 310.902C234.112 311.266 232.668 311.568 231.201 311.808C229.724 312.114 228.351 312.375 227.083 312.591C224.491 312.966 221.918 313.015 219.364 312.74C216.886 312.39 214.795 311.445 213.09 309.904C212.187 309.043 211.492 308.093 211.007 307.053C210.599 305.938 210.366 304.739 210.309 303.453C210.252 302.168 210.295 300.871 210.436 299.562C210.655 298.179 210.873 296.796 211.091 295.413C211.386 293.957 211.775 292.521 212.258 291.106C212.741 289.692 213.374 288.356 214.157 287.1C214.895 285.719 215.889 284.567 217.139 283.642C218.465 282.643 219.89 282.053 221.412 281.871C223.398 281.633 224.977 282.123 226.149 283.339C227.331 284.49 227.771 286.02 227.47 287.93C227.168 289.839 226.213 291.569 224.605 293.118C222.996 294.667 221.199 295.561 219.214 295.798C219.081 295.814 218.916 295.834 218.717 295.858C218.595 295.808 218.435 295.794 218.236 295.818C218.122 296.543 218.013 297.234 217.909 297.892C217.871 298.543 217.833 299.194 217.795 299.844C217.613 302.644 218.158 304.743 219.431 306.142C220.704 307.54 222.787 308.131 225.678 307.914C226.793 307.845 228.046 307.728 229.436 307.561C230.836 307.329 232.219 307.002 233.585 306.58C235.027 306.085 236.357 305.473 237.576 304.746C238.806 303.953 239.779 302.932 240.495 301.683C241.8 299.589 242.645 297.324 243.03 294.887C243.48 292.443 243.872 290.167 244.205 288.06C244.569 285.755 244.711 283.412 244.633 281.031C244.62 278.642 244.24 276.523 243.493 274.674C242.756 272.76 241.565 271.255 239.92 270.159C238.351 268.99 236.159 268.477 233.344 268.62C231.002 268.642 228.748 269.138 226.582 270.108C224.492 271.004 222.582 272.201 220.851 273.7C219.121 275.2 217.609 276.963 216.314 278.992C215.02 281.02 213.997 283.178 213.247 285.464C212.857 286.286 212.178 286.884 211.21 287.258C210.308 287.625 209.404 287.798 208.498 287.777C207.668 287.682 206.964 287.411 206.386 286.963C205.817 286.45 205.71 285.687 206.065 284.676ZM220.711 286.316C219.983 286.403 219.35 286.705 218.814 287.221C218.278 287.737 217.953 288.358 217.838 289.082C217.724 289.806 217.862 290.371 218.253 290.777C218.643 291.182 219.203 291.342 219.931 291.254C220.659 291.167 221.291 290.866 221.827 290.349C222.43 289.825 222.788 289.201 222.902 288.476C223.017 287.752 222.846 287.191 222.389 286.793C221.998 286.388 221.439 286.229 220.711 286.316Z" fill="white"/>
<path d="M277.816 256.809C279.811 256.943 281.289 257.721 282.249 259.145C283.209 260.568 283.388 262.198 282.784 264.035C282.181 265.872 280.962 267.409 279.129 268.645C277.316 269.819 275.411 270.338 273.416 270.205C271.686 270.089 270.356 269.482 269.425 268.384C269.276 268.633 269.159 268.884 269.076 269.138C269.08 269.332 269.051 269.524 268.988 269.714C268.897 270.615 269.023 271.367 269.368 271.973C269.734 272.515 270.22 273.001 270.827 273.43C271.455 273.796 272.18 274.071 273.003 274.255C273.826 274.44 274.66 274.593 275.504 274.714C276.036 274.749 276.527 274.912 276.975 275.201C277.445 275.426 277.794 275.709 278.023 276.048C278.252 276.387 278.326 276.78 278.247 277.228C278.168 277.676 277.812 278.137 277.18 278.613C276.245 279.392 275.014 280.345 273.488 281.473C271.983 282.537 270.546 283.703 269.178 284.971C267.876 286.243 266.797 287.563 265.94 288.929C265.104 290.233 264.821 291.508 265.091 292.756C265.332 293.679 265.993 294.564 267.074 295.413C268.175 296.199 269.428 296.833 270.833 297.316C272.326 297.739 273.825 297.937 275.33 297.908C276.922 297.82 278.252 297.391 279.321 296.621C280.411 295.788 281.319 294.781 282.047 293.6C282.862 292.36 283.521 291.077 284.025 289.751C284.595 288.43 285.065 287.102 285.435 285.768C285.872 284.437 286.267 283.234 286.621 282.157C287.62 279.117 288.656 275.756 289.729 272.073C290.89 268.332 291.87 264.934 292.669 261.881C292.852 261.116 293.395 260.602 294.297 260.339C295.22 260.013 296.137 259.912 297.047 260.038C297.979 260.1 298.771 260.38 299.423 260.876C300.142 261.378 300.4 262.042 300.196 262.87C299.622 265.032 298.995 267.353 298.317 269.832C297.705 272.316 297.027 274.795 296.282 277.269C295.537 279.744 294.726 282.214 293.848 284.68C293.058 287.087 292.165 289.39 291.171 291.589C289.649 294.982 287.536 297.689 284.833 299.709C282.13 301.729 278.862 302.675 275.029 302.548C273.279 302.496 271.437 302.308 269.504 301.984C267.571 301.661 265.733 301.149 263.992 300.45C262.337 299.692 260.878 298.753 259.615 297.633C258.372 296.449 257.578 295.037 257.233 293.396C256.959 291.953 257.107 290.572 257.677 289.25C258.268 287.866 259.114 286.531 260.216 285.245C261.318 283.96 262.576 282.717 263.99 281.517C265.404 280.317 266.83 279.182 268.269 278.114C266.282 277.333 264.675 276.222 263.449 274.781C262.223 273.34 261.806 271.402 262.197 268.969C262.476 267.499 263.065 266.017 263.963 264.523C264.883 262.967 266.039 261.62 267.432 260.483C268.846 259.283 270.409 258.352 272.122 257.69C273.922 256.969 275.82 256.675 277.816 256.809ZM278.095 263.721C278.324 263.025 278.278 262.439 277.958 261.964C277.638 261.49 277.112 261.228 276.38 261.179C275.649 261.13 274.977 261.312 274.366 261.724C273.755 262.136 273.335 262.691 273.106 263.388C272.877 264.084 272.923 264.67 273.243 265.144C273.563 265.619 274.088 265.881 274.82 265.93C275.552 265.979 276.223 265.797 276.835 265.385C277.446 264.973 277.866 264.418 278.095 263.721Z" fill="white"/>
<path d="M187.896 261.813L188.326 260.112C187.747 260.14 187.261 260.118 186.867 260.048C184.964 259.706 183.644 258.844 182.908 257.461C182.132 256.005 182.121 254.422 182.872 252.714C183.624 251.005 184.911 249.689 186.733 248.765C188.517 247.768 190.36 247.441 192.263 247.782C193.904 248.077 195.133 248.824 195.95 250.024C196.132 250.254 196.267 250.509 196.357 250.788C196.667 251.371 196.812 252.088 196.791 252.94C196.833 254.133 196.722 255.43 196.46 256.831C196.158 258.16 195.727 259.301 195.166 260.253C195.325 260.216 195.542 260.123 195.82 259.976C196.559 259.582 197.253 259.212 197.9 258.868C198.482 258.511 199.142 258.136 199.882 257.742C201.257 256.869 202.632 255.997 204.007 255.124C205.317 254.24 206.653 253.295 208.016 252.288C208.651 251.81 209.442 251.623 210.387 251.726C211.294 251.758 212.101 251.935 212.808 252.26C213.58 252.596 214.089 253.049 214.333 253.62C214.67 254.141 214.475 254.666 213.747 255.194C210.159 258.039 206.363 260.551 202.361 262.73C200.789 263.567 199.165 264.362 197.488 265.114C195.746 265.855 194.028 266.139 192.334 265.967C190.902 265.842 189.788 265.477 188.992 264.873C188.13 264.258 187.765 263.237 187.896 261.813ZM190.532 251.718C189.876 251.6 189.224 251.714 188.577 252.059C187.929 252.403 187.471 252.881 187.203 253.491C186.935 254.101 186.936 254.661 187.207 255.171C187.506 255.619 187.983 255.902 188.639 256.02C189.295 256.138 189.934 256.055 190.554 255.771C191.201 255.427 191.659 254.949 191.928 254.339C192.196 253.729 192.195 253.169 191.923 252.659C191.652 252.15 191.188 251.836 190.532 251.718Z" fill="white"/>
<defs>
<radialGradient id="paint0_radial_15_281" cx="0" cy="0" r="1" gradientUnits="userSpaceOnUse" gradientTransform="translate(187.5 250) rotate(90) scale(234 171.5)">
<stop offset="0.144" stop-color="#FCA023"/>
<stop offset="0.684" stop-color="#E44500"/>
</radialGradient>
<clipPath id="clip0_15_281">
<rect x="16" y="16" width="343" height="468" rx="8" fill="white"/>
</clipPath>
</defs>
</svg>
